<svg xmlns="http://www.w3.org/2000/svg" viewBox="0 0 64 64" role="img" aria-label="NestHub navigation">
  <defs>
    <linearGradient id="bg" x1="12" y1="8" x2="52" y2="58" gradientUnits="userSpaceOnUse">
      <stop stop-color="#ff6269"/>
      <stop offset="1" stop-color="#ef3f4b"/>
    </linearGradient>
  </defs>
  <rect width="64" height="64" rx="16" fill="url(#bg)"/>
  <circle cx="32" cy="32" r="19" fill="none" stroke="#fff" stroke-width="5"/>
  <path fill="#fff" d="M41.6 18.9 35 39.5a3.2 3.2 0 0 1-2 2l-10.6 3.6a2.1 2.1 0 0 1-2.7-2.7L23.3 32a3.2 3.2 0 0 1 2-2l20.6-6.7a1.8 1.8 0 0 1 2.3 2.3z"/>
  <path fill="#ff4d55" d="m31.1 33.1 6.5-8.7-8.7 6.5a3 3 0 0 0-.6 4.2 3 3 0 0 0 4.2.6z"/>
  <circle cx="32" cy="32" r="3.8" fill="#fff"/>
  <circle cx="48" cy="16" r="3.2" fill="#fff" opacity=".9"/>
</svg>
